<svg width="50" height="50" viewBox="0 0 50 50" fill="none" xmlns="http://www.w3.org/2000/svg">
<path d="M16.5699 25C16.5699 24.191 17.2258 23.5352 18.0348 23.5352H31.9652C32.7742 23.5352 33.43 24.191 33.43 25C33.43 25.809 32.7742 26.4648 31.9652 26.4648H18.0348C17.2258 26.4648 16.5699 25.809 16.5699 25Z" fill="white"/>
<path d="M45.6055 17.6758H44.043V16.6992C44.043 14.2761 42.0715 12.3047 39.6484 12.3047H10.3516C7.92847 12.3047 5.95703 14.2761 5.95703 16.6992V17.6758H4.39453C1.97144 17.6758 0 19.6472 0 22.0703V27.9297C0 30.3528 1.97144 32.3242 4.39453 32.3242H5.95703V33.3008C5.95703 35.7239 7.92847 37.6953 10.3516 37.6953H16.3937C18.2346 37.6953 20.0096 37.1441 21.5267 36.1012C23.6042 34.6733 26.3962 34.6733 28.4737 36.1012C29.9908 37.1441 31.7654 37.6953 33.6063 37.6953H39.6484C42.0715 37.6953 44.043 35.7239 44.043 33.3008V32.3242H45.6055C48.0286 32.3242 50 30.3528 50 27.9297V22.0703C50 19.6472 48.0286 17.6758 45.6055 17.6758ZM4.39453 29.3945C3.58696 29.3945 2.92969 28.7373 2.92969 27.9297V22.0703C2.92969 21.2627 3.58696 20.6055 4.39453 20.6055H5.95703V29.3945H4.39453ZM41.1133 33.3008C41.1133 34.1084 40.456 34.7656 39.6484 34.7656H33.6063C32.3608 34.7656 31.1596 34.3925 30.1331 33.6868C28.616 32.6443 26.841 32.093 25 32.093C23.159 32.093 21.384 32.6443 19.8669 33.6868C18.8404 34.3925 17.6392 34.7656 16.3937 34.7656H10.3516C9.54399 34.7656 8.88672 34.1084 8.88672 33.3008V16.6992C8.88672 15.8916 9.54399 15.2344 10.3516 15.2344H39.6484C40.456 15.2344 41.1133 15.8916 41.1133 16.6992V33.3008ZM47.0703 27.9297C47.0703 28.7373 46.413 29.3945 45.6055 29.3945H44.043V20.6055H45.6055C46.413 20.6055 47.0703 21.2627 47.0703 22.0703V27.9297Z" fill="white"/>
</svg>
